<?xml version="1.0" encoding="UTF-8" standalone="no"?>
<!DOCTYPE svg PUBLIC "-//W3C//DTD SVG 1.1//EN" "http://www.w3.org/Graphics/SVG/1.1/DTD/svg11.dtd">
<svg width="100%" height="100%" viewBox="0 0 38 34" version="1.1" xmlns="http://www.w3.org/2000/svg" xmlns:xlink="http://www.w3.org/1999/xlink" xml:space="preserve" xmlns:serif="http://www.serif.com/" style="fill-rule:evenodd;clip-rule:evenodd;stroke-linejoin:round;stroke-miterlimit:2;">
    <g transform="matrix(1,0,0,1,-62.7344,-3.41976e-08)">
        <path d="M67.014,21.739C66.612,22.408 66.183,23.063 65.807,23.746C65.311,24.609 64.882,25.529 64.614,26.504C64.48,26.964 64.399,27.438 64.399,27.925C64.399,29.054 64.989,29.792 66.049,30.029C66.572,30.141 67.081,30.141 67.604,30.085C69.093,29.918 70.488,29.402 71.856,28.817C71.869,28.817 71.882,28.803 71.882,28.803C68.154,25.25 66.33,20.862 66.719,15.595C67.041,11.262 68.852,7.64 72.043,4.839C75.664,1.663 79.888,0.492 84.542,1.356C89.209,2.234 92.682,4.951 95.109,9.158C95.351,8.782 95.592,8.392 95.82,8.016C96.356,7.11 96.839,6.177 97.174,5.174C97.362,4.616 97.496,4.059 97.496,3.474C97.51,2.861 97.376,2.29 96.933,1.844C96.598,1.509 96.169,1.342 95.713,1.259C95.056,1.147 94.412,1.203 93.755,1.314C92.387,1.551 91.086,2.053 89.812,2.61C89.691,2.666 89.584,2.708 89.463,2.749C89.638,2.652 89.812,2.568 90,2.471C91.287,1.816 92.588,1.231 93.943,0.757C94.774,0.464 95.619,0.228 96.491,0.102C97.188,-0.009 97.899,-0.051 98.596,0.088C99.119,0.2 99.602,0.395 99.977,0.813C100.366,1.245 100.581,1.76 100.661,2.345C100.755,3.139 100.607,3.906 100.366,4.644C100.044,5.675 99.562,6.636 99.039,7.57C98.22,9.033 97.282,10.426 96.303,11.791C96.263,11.861 96.249,11.903 96.276,11.987C96.611,13.018 96.826,14.076 96.933,15.163C97.04,16.18 97.054,17.197 96.96,18.228C96.799,20.248 96.276,22.157 95.391,23.968C94.613,25.571 93.594,26.992 92.36,28.232C91.234,29.36 89.986,30.28 88.592,30.99C87.184,31.715 85.722,32.203 84.166,32.453C83.241,32.606 82.302,32.662 81.35,32.634C78.869,32.551 76.536,31.868 74.377,30.6C74.256,30.531 74.162,30.531 74.041,30.6C72.607,31.339 71.145,31.994 69.616,32.495C68.798,32.76 67.966,32.983 67.122,33.108C66.357,33.219 65.593,33.261 64.842,33.094C64.279,32.969 63.756,32.746 63.34,32.3C63.005,31.938 62.83,31.506 62.763,31.004C62.669,30.238 62.817,29.486 63.031,28.761C63.353,27.674 63.849,26.671 64.399,25.696C65.164,24.331 66.062,23.049 67.001,21.809C66.988,21.767 67.001,21.753 67.014,21.739ZM77.394,25.78C77.461,25.738 77.501,25.724 77.528,25.696C80.197,23.982 82.718,22.06 85.118,19.984C87.17,18.214 89.141,16.333 90.979,14.313C91.985,13.213 92.95,12.07 93.862,10.872C93.929,10.788 93.929,10.733 93.889,10.649C93.151,9.089 92.159,7.723 90.925,6.553C90.241,5.898 89.517,5.285 88.659,4.867C86.728,3.906 84.716,3.655 82.624,4.156C80.854,4.574 79.352,5.494 78.051,6.79C76.978,7.849 76.16,9.102 75.53,10.482C74.752,12.209 74.336,14.021 74.256,15.916C74.202,17.155 74.283,18.382 74.524,19.594C74.886,21.433 75.57,23.146 76.616,24.679C76.844,25.055 77.126,25.403 77.394,25.78ZM79.473,27.647C79.486,27.661 79.499,27.674 79.526,27.688C81.35,28.942 83.362,29.5 85.548,29.291C86.754,29.179 87.881,28.803 88.954,28.218C90.268,27.493 91.368,26.518 92.293,25.306C94.184,22.826 95.056,19.97 95.123,16.835C95.136,15.943 95.069,15.038 94.935,14.16C94.908,14.021 94.881,13.895 94.854,13.728C94.814,13.784 94.774,13.826 94.747,13.854C93.849,15.01 92.897,16.124 91.877,17.169C91.394,17.657 90.898,18.131 90.429,18.632C89.544,19.552 88.645,20.444 87.72,21.321C86.5,22.45 85.226,23.509 83.898,24.498C82.892,25.25 81.887,25.989 80.881,26.713C80.411,27.048 79.942,27.34 79.473,27.647Z" style="fill:rgb(0,255,163);fill-rule:nonzero;"/>
    </g>
</svg>
